<svg xmlns="http://www.w3.org/2000/svg" viewBox="0 0 20.93 17"><defs><style>.cls-1{fill:#fff;}</style></defs><title>アセット 2</title><g id="レイヤー_2" data-name="レイヤー 2"><g id="レイヤー_1-2" data-name="レイヤー 1"><path class="cls-1" d="M18.78,4.24c0,.18,0,.37,0,.55A12.11,12.11,0,0,1,6.59,17,12.07,12.07,0,0,1,0,15.07a8.94,8.94,0,0,0,1,.06,8.56,8.56,0,0,0,5.32-1.84,4.3,4.3,0,0,1-4-3,5.42,5.42,0,0,0,.81.07,4.67,4.67,0,0,0,1.13-.15A4.29,4.29,0,0,1,.85,6V6a4.36,4.36,0,0,0,1.94.54A4.27,4.27,0,0,1,.88,3,4.29,4.29,0,0,1,1.46.78a12.16,12.16,0,0,0,8.85,4.49,4.6,4.6,0,0,1-.11-1,4.29,4.29,0,0,1,7.42-2.94,8.42,8.42,0,0,0,2.73-1,4.3,4.3,0,0,1-1.89,2.36A8.59,8.59,0,0,0,20.93,2a9.07,9.07,0,0,1-2.15,2.22Z"/></g></g></svg>